(Arte) Churchill, maître du jeu (2012)
TNT-Rip by Clo2 | French | 1h34min | 608 x 344 | 25.000 fps | Avi | MPEG-4 XviD @ 795 Kbps | MP3 @ 112 Kbps | 616 MB
Genre : Documentaire

Un portrait, non sans zones d'ombre, de l'homme de pouvoir britannique, resté dans la mémoire collective comme le héros qui a su résister à l'Allemagne nazie.

En mai 1940, le Premier ministre britannique ne promet rien d'autre aux Anglais que "du sang, de la peine, des larmes et de la sueur". Winston Churchill, personnage haut en couleur, avec son éternel cigare et ses doigts formant le V de la victoire, galvanise littéralement les Londoniens pendant le Blitz, alors que des tonnes de bombes sont larguées sur la capitale. Mais lorsque l'on étudie son action diplomatique, l'homme d'État britannique apparaît pétri de contradictions. Ce documentaire met notamment en exergue son attitude ambiguë à l'égard de la résistance polonaise et du gouvernement en exil de Sikorski. Il ordonnera d'ailleurs, en 1943, de faire silence sur les véritables auteurs du massacre de Katyn pour ne pas indisposer Staline. À mesure que la Seconde Guerre mondiale évolue en faveur des Alliés, il se livre à une véritable partie de poker avec ce dernier, puis avec Roosevelt, pour redessiner la carte de l'Europe. Lors de la conférence de Téhéran, en novembre 1943, puis de Yalta, en février 1945, il s'efforce de jouer ses meilleures cartes. Mais à l'heure de la victoire, il est désavoué par ses propres concitoyens, qui l'avaient adulé. Le travailliste Clement Attlee lui succède au 
poste de Premier 

Mediainfo=============================================
Format : AVI
Format/Info : Audio Video Interleave
File size : 616 MiB
Duration : 1h 34mn
Overall bit rate : 917 Kbps
Writing application : VirtualDubMod 1.5.10.3 Fr | www.virtualdub-fr.org || (build 2550/release)
Writing library : VirtualDubMod build 2550/release

Video
ID : 0
Format : MPEG-4 Visual
Format profile : Advanced Simple@L5
Format settings, BVOP : 2
Format settings, QPel : No
Format settings, GMC : No warppoints
Format settings, Matrix : Default (H.263)
Muxing mode : Packed bitstream
Codec ID : XVID
Codec ID/Hint : XviD
Duration : 1h 34mn
Bit rate : 795 Kbps
Width : 608 pixels
Height : 344 pixels
Display aspect ratio : 16:9
Frame rate : 25.000 fps
Color space : YUV
Chroma subsampling : 4:2:0
Bit depth : 8 bits
Scan type : Progressive
Compression mode : Lossy
Bits/(Pixel*Frame) : 0.152
Stream size : 535 MiB (87%)
Writing library : XviD 64

Audio
ID : 1
Format : MPEG Audio
Format version : Version 1
Format profile : Layer 3
Mode : Joint stereo
Codec ID : 55
Codec ID/Hint : MP3
Duration : 1h 34mn
Bit rate mode : Constant
Bit rate : 112 Kbps
Channel(s) : 2 channels
Sampling rate : 48.0 KHz
Compression mode : Lossy
Stream size : 75.3 MiB (12%)
Alignment : Aligned on interleaves
Interleave, duration : 40 ms (1.00 video frame)
Interleave, preload duration : 504 ms
Writing library : LAME3.98r
Encoding settings : -m j -V 4 -q 3 -lowpass 15.6 -b 112